<?xml version="1.0"?>
<svg xmlns="http://www.w3.org/2000/svg" xmlns:xlink="http://www.w3.org/1999/xlink" xmlns:svgjs="http://svgjs.com/svgjs" version="1.1" width="512" height="512" x="0" y="0" viewBox="0 0 64 64" style="enable-background:new 0 0 512 512" xml:space="preserve" class=""><g><g xmlns="http://www.w3.org/2000/svg" id="Paper_bag" data-name="Paper bag"><path d="m56.303 36.90723a1.00148 1.00148 0 0 0 -.99414-.88867h-10.199l-1.174-16.06641a.99925.99925 0 0 0 -.99707-.92725h-6.004v-6.05176a10.96192 10.96192 0 1 0 -21.92383 0v6.05176h-6.01953a.99925.99925 0 0 0 -.99707.92725l-2.99511 40.97265a.89859.89859 0 0 0 .99707 1.0732l52.00781.002a.89839.89839 0 0 0 .99414-1.11133zm-39.292-23.93409a8.96192 8.96192 0 1 1 17.92383 0v6.05176h-17.92383zm-7.08988 8.05176h5.08988v2.09235a4.00437 4.00437 0 1 0 2 .01532v-2.10767h17.92379v2.10187a3.99782 3.99782 0 1 0 2-.00366v-2.09821h5.07421l1.096 14.99365h-18.34794a1.00148 1.00148 0 0 0 -.99414.88867l-2.59613 23.09078h-14.0943zm6.06543 3.958a1.9978 1.9978 0 1 1 -2 1.998 2.00073 2.00073 0 0 1 2-1.99799zm19.9541 0a1.9978 1.9978 0 1 1 -1.999 1.998 2.00073 2.00073 0 0 1 1.999-1.99799zm-12.76074 35.0171 2.4707-21.98145h28.76465l2.46974 21.98145z" fill="#07234f" data-original="#000000" style="" class=""/><path d="m50.136 40.0127a2.99757 2.99757 0 0 0 -1.17847 5.75439 8.96574 8.96574 0 0 1 -17.89655.02783 3.011 3.011 0 1 0 -1.99689.06226 10.96284 10.96284 0 0 0 21.88763.0257 2.99045 2.99045 0 0 0 -.81572-5.87018zm-20.17383 2a.99854.99854 0 1 1 -.999.999 1.00047 1.00047 0 0 1 .99897-.999zm20.17383 1.99707a.99854.99854 0 1 1 1-.998.99943.99943 0 0 1 -1 .998z" fill="#07234f" data-original="#000000" style="" class=""/></g></g></svg>
