<?xml version="1.0"?>
<svg xmlns="http://www.w3.org/2000/svg" xmlns:xlink="http://www.w3.org/1999/xlink" xmlns:svgjs="http://svgjs.com/svgjs" version="1.1" width="512" height="512" x="0" y="0" viewBox="0 0 511.986 511.986" style="enable-background:new 0 0 512 512" xml:space="preserve" class=""><g><g xmlns="http://www.w3.org/2000/svg"><g><path d="m347.238 355.982h39.383c4.143 0 7.5-3.357 7.5-7.5s-3.357-7.5-7.5-7.5h-39.383c-4.143 0-7.5 3.357-7.5 7.5s3.357 7.5 7.5 7.5z" fill="#07234f" data-original="#000000" style="" class=""/><path d="m404.479 293.512c-25.495-11.351-74.503-18.059-92.461-20.224v-33.663c13.893-10.921 28.907-28.637 30.187-54.65h.48c14.684 0 26.629-11.95 26.629-26.64v-9.055c0-3.881-.856-7.696-2.466-11.179 1.621-2.538 2.507-5.506 2.507-8.631 0-9.044-3.493-17.506-9.28-23.908v-25.859c0-28.003-17.746-53.07-44.158-62.376-3.905-1.374-8.19.676-9.566 4.582s.675 8.189 4.582 9.566c20.422 7.194 34.143 26.576 34.143 48.228v16.005c-1.108-.37-2.239-.693-3.396-.952-56.855-12.74-114.514-12.74-171.374 0-1.156.259-2.287.582-3.395.952v-16.005c0-21.651 13.721-41.033 34.143-48.228l39.126-13.785c10.197-3.592 21.428-3.592 31.625 0l6.207 2.187c3.907 1.375 8.19-.676 9.566-4.582 1.376-3.907-.676-8.189-4.582-9.566l-6.207-2.187c-13.412-4.723-28.183-4.723-41.594 0l-39.127 13.785c-26.413 9.306-44.158 34.372-44.158 62.376v25.859c-5.787 6.402-9.281 14.865-9.281 23.909 0 3.125.886 6.093 2.507 8.63-1.609 3.482-2.465 7.297-2.465 11.178v9.055c0 14.689 11.946 26.64 26.629 26.64h.481c1.283 26.017 16.294 43.731 30.186 54.65v33.664c-17.958 2.165-66.966 8.873-92.461 20.224-27.053 12.046-44.534 38.964-44.534 68.578v115.393c0 19.025 15.479 34.504 34.504 34.504h317.034c19.025 0 34.504-15.479 34.504-34.504v-115.393c0-29.614-17.481-56.532-44.535-68.578zm-199.557-5.698 36.417 33.273-20.38 6.449c-7.663 2.422-16.043-.921-19.929-7.954l-16.097-29.132c8.839-1.292 16.033-2.176 19.989-2.636zm50.931-25.918c.047.001.093.001.14.001s.093 0 .14-.001c10.223-.191 25.713-4.154 40.886-12.432v27.21l-41.025 37.483-41.025-37.483v-27.21c15.171 8.277 30.661 12.241 40.884 12.432zm51.211 25.918c3.955.46 11.149 1.344 19.989 2.636l-16.097 29.133c-3.887 7.033-12.27 10.378-19.93 7.954l-20.38-6.449zm47.25-129.48c0 6.418-5.217 11.64-11.629 11.64h-.362l.046-26.789c2.208.568 4.415 1.152 6.621 1.764 1.558.433 3.137.601 4.699.566.408 1.195.625 2.458.625 3.764zm-180.728-48.941c54.673-12.25 110.127-12.255 164.814 0 9.245 2.071 15.955 10.516 15.955 20.078 0 .733-.694 1.203-1.354 1.025-64.37-17.86-129.646-17.861-194.016 0-.665.178-1.354-.296-1.354-1.025-.001-9.563 6.709-18.006 15.955-20.078zm-15.914 48.941v-9.055c0-1.3.215-2.558.62-3.749 1.604.036 3.093-.133 4.704-.581 2.206-.612 4.413-1.196 6.621-1.764l.046 26.789h-.363c-6.412 0-11.628-5.222-11.628-11.64zm27.011 23.024-.072-41.69c47.457-10.069 95.307-10.069 142.764 0l-.072 41.702c0 21.668-10.794 35.277-27.475 48.674-15.523 11.144-33.779 16.614-43.835 16.849-15.329-.358-31.588-8.949-44.451-17.293-14.74-10.775-26.859-26.727-26.859-48.242zm-71.075 125.857c13.826-6.156 36.098-10.949 55.564-14.274l18.728 33.895c7.33 13.266 23.134 19.574 37.584 15.001l30.508-9.654 30.508 9.654c14.448 4.572 30.255-1.736 37.584-15.001l18.728-33.895c19.467 3.325 41.739 8.118 55.565 14.274 21.648 9.639 35.637 31.179 35.637 54.875v65.04h-31.932c-2.798 0-5.48.505-7.962 1.425v-35.21c0-12.41-10.097-22.506-22.507-22.506-11.447 0-163.404 0-172.178 0-4.142 0-7.5 3.357-7.5 7.5s3.358 7.5 7.5 7.5h20.134v62.537c0 4.207 2.286 8.087 5.965 10.127 3.679 2.039 8.178 1.923 11.749-.307l18.708-11.688 18.709 11.688c3.569 2.229 8.071 2.346 11.75.306s5.964-5.92 5.964-10.126v-62.537h79.198c4.14 0 7.507 3.367 7.507 7.506v56.747c0 4.391-3.571 7.963-7.962 7.963-22.291 0-40.644 17.141-42.595 38.932h-145.14c-1.951-21.791-20.304-38.932-42.595-38.932-4.391 0-7.962-3.572-7.962-7.963v-56.747c0-4.139 3.367-7.506 7.506-7.506h23.775c4.142 0 7.5-3.357 7.5-7.5s-3.358-7.5-7.5-7.5h-23.775c-12.41 0-22.506 10.096-22.506 22.506v35.211c-2.482-.921-5.164-1.425-7.962-1.425h-31.931v-65.04c0-23.697 13.988-45.237 35.636-54.876zm120.963 78.624h42.845v56.366l-15.287-9.55c-3.729-2.33-8.544-2.327-12.271-.001l-15.288 9.551v-56.366zm-156.599 91.643v-35.352h31.931c4.391 0 7.962 3.571 7.962 7.962v.001.001c.001 12.661 10.301 22.961 22.962 22.961 14.011 0 25.625 10.43 27.504 23.932h-70.855c-10.755-.001-19.504-8.75-19.504-19.505zm336.538 19.504h-70.856c1.878-13.502 13.492-23.932 27.504-23.932 12.661 0 22.962-10.301 22.962-22.963 0-4.391 3.571-7.962 7.962-7.962h31.932v35.353c0 10.755-8.749 19.504-19.504 19.504z" fill="#07234f" data-original="#000000" style="" class=""/></g></g></g></svg>
