<?xml version="1.0"?>
<svg xmlns="http://www.w3.org/2000/svg" xmlns:xlink="http://www.w3.org/1999/xlink" xmlns:svgjs="http://svgjs.com/svgjs" version="1.1" width="512" height="512" x="0" y="0" viewBox="0 0 348.47 348.47" style="enable-background:new 0 0 512 512" xml:space="preserve" class=""><g><g xmlns="http://www.w3.org/2000/svg"><path d="m258.42 333.995c-25.11-.029-45.458-20.38-45.485-45.49 0-2.828 2.292-5.12 5.12-5.12s5.12 2.292 5.12 5.12c0 19.467 15.781 35.247 35.247 35.247 19.467 0 35.248-15.781 35.248-35.247 0-2.828 2.292-5.12 5.12-5.12s5.12 2.292 5.12 5.12c-.027 25.112-20.378 45.463-45.49 45.49z" fill="#07234f" data-original="#000000" style="" class=""/><path d="m318.7 263.185h-98.59c-2.826.002-5.118-2.288-5.12-5.114 0-.002 0-.004 0-.006v-129.065c0-2.828 2.292-5.12 5.12-5.12s5.12 2.292 5.12 5.12v123.945h85.085c-9.27-15.56-24.649-26.51-42.385-30.18-2.126-.436-3.745-2.165-4.04-4.315l-12.285-88.75c-.392-2.799 1.56-5.386 4.359-5.778s5.386 1.56 5.778 4.359c.001.006.002.012.003.019l11.805 85.255c22.245 5.759 40.617 21.409 49.84 42.455 1.134 2.592-.048 5.612-2.64 6.746-.647.282-1.344.428-2.05.429z" fill="#07234f" data-original="#000000" style="" class=""/><path d="m95.065 333.995c-25.112-.027-45.463-20.378-45.49-45.49 0-2.828 2.292-5.12 5.12-5.12s5.12 2.292 5.12 5.12c.006 19.468 15.793 35.245 35.261 35.239 19.459-.006 35.233-15.78 35.239-35.239 0-2.828 2.292-5.12 5.12-5.12s5.12 2.292 5.12 5.12c-.027 25.112-20.378 45.463-45.49 45.49z" fill="#07234f" data-original="#000000" style="" class=""/><path d="m328.14 293.65h-302.795c-11.24-.02-20.336-9.148-20.317-20.388.02-11.212 9.104-20.297 20.317-20.317h302.95c11.227.085 20.259 9.255 20.174 20.483-.059 7.834-4.615 14.936-11.709 18.257-2.686 1.305-5.634 1.977-8.62 1.965zm.095-30.465h-302.89c-5.585.038-10.082 4.597-10.043 10.182.038 5.531 4.512 10.006 10.043 10.043h302.795c1.444.011 2.871-.313 4.17-.945 3.595-1.651 5.905-5.239 5.92-9.195-.003-5.534-4.462-10.033-9.995-10.085z" fill="#07234f" data-original="#000000" style="" class=""/><path d="m164.495 263.16h-126.955c-2.826.002-5.118-2.288-5.12-5.114 0-.002 0-.004 0-.006v-1.44c.057-48.776 39.584-88.303 88.36-88.36h43.715c2.826-.002 5.118 2.288 5.12 5.114v.006 84.68c.002 2.826-2.288 5.118-5.114 5.12-.002 0-.004 0-.006 0zm-121.75-10.24h116.63v-74.44h-38.595c-41.694.05-76.02 32.794-78.035 74.44z" fill="#07234f" data-original="#000000" style="" class=""/><path d="m162.315 178.48h-109.545c-11.24-.016-20.339-9.142-20.323-20.382.016-11.217 9.106-20.306 20.323-20.323h109.545c11.24.016 20.339 9.142 20.323 20.382-.017 11.217-9.106 20.306-20.323 20.323zm-109.545-30.465c-5.585.012-10.103 4.549-10.091 10.134.012 5.568 4.523 10.08 10.091 10.091h109.545c5.585-.012 10.103-4.549 10.091-10.134-.012-5.568-4.523-10.08-10.091-10.091z" fill="#07234f" data-original="#000000" style="" class=""/><path d="m272.59 134.12h-53.325c-7.618-.008-13.792-6.182-13.8-13.8v-15.415c.01-7.616 6.184-13.787 13.8-13.795h53.325c7.616.008 13.789 6.179 13.8 13.795v15.415c-.009 7.618-6.182 13.791-13.8 13.8zm-53.325-32.77c-1.964 0-3.557 1.591-3.56 3.555v15.415c.001 1.966 1.594 3.559 3.56 3.56h53.325c1.966-.001 3.559-1.594 3.56-3.56v-15.415c-.003-1.964-1.596-3.555-3.56-3.555z" fill="#07234f" data-original="#000000" style="" class=""/><path d="m263.92 101.35h-35.985c-1.221.001-2.403-.435-3.33-1.23l-35.385-30.32c-6.99-5.693-8.042-15.974-2.35-22.965 2.692-3.305 6.57-5.426 10.805-5.91 4.301-.494 8.621.745 12.005 3.445l57.52 47.925c2.172 1.811 2.465 5.041.654 7.213-.973 1.167-2.414 1.842-3.934 1.842zm-34.09-10.24h19.95l-46.565-38.8c-2.671-2.036-6.487-1.52-8.523 1.151-2.003 2.629-1.54 6.377 1.043 8.439z" fill="#07234f" data-original="#000000" style="" class=""/><path d="m116.685 148.015h-111.565c-2.826.002-5.118-2.288-5.12-5.114 0-.002 0-.004 0-.006v-111.465c-.002-2.826 2.288-5.118 5.114-5.12h.006 39.465c2.828 0 5.12 2.292 5.12 5.12s-2.292 5.12-5.12 5.12h-34.345v101.225h101.325v-101.225h-34.34c-2.828 0-5.12-2.292-5.12-5.12s2.292-5.12 5.12-5.12h39.46c2.826-.002 5.118 2.288 5.12 5.114v.006 111.465c.002 2.826-2.288 5.118-5.114 5.12-.002 0-.004 0-.006 0z" fill="#07234f" data-original="#000000" style="" class=""/><path d="m77.225 78.28c-1.082 0-2.136-.343-3.01-.98l-13.31-9.67-13.31 9.67c-2.287 1.662-5.489 1.156-7.152-1.132-.635-.874-.978-1.927-.978-3.008v-53.565c-.002-2.826 2.288-5.118 5.114-5.12h.006 32.64c2.826-.002 5.118 2.288 5.12 5.114v.006 53.565c-.003 2.827-2.294 5.117-5.12 5.12zm-16.32-22.1c1.082-.001 2.136.342 3.01.98l8.19 5.95v-38.395h-22.4v38.395l8.19-5.95c.874-.638 1.928-.981 3.01-.98z" fill="#07234f" data-original="#000000" style="" class=""/></g></g></svg>
