<?xml version="1.0"?>
<svg xmlns="http://www.w3.org/2000/svg" xmlns:xlink="http://www.w3.org/1999/xlink" xmlns:svgjs="http://svgjs.com/svgjs" version="1.1" width="512" height="512" x="0" y="0" viewBox="0 0 64 64" style="enable-background:new 0 0 512 512" xml:space="preserve" class=""><g><path xmlns="http://www.w3.org/2000/svg" d="M11.2119,18.5767A.9981.9981,0,0,0,12.48,17.95l2.31-6.8306a1,1,0,0,0-1.8945-.6406l-2.31,6.8306A1,1,0,0,0,11.2119,18.5767Z" fill="#07234f" data-original="#000000" style="" class=""/><path xmlns="http://www.w3.org/2000/svg" d="M13.541,27.27a.9981.9981,0,0,0,1.2676-.6269L17.12,19.8125a1,1,0,1,0-1.8945-.6406l-2.3115,6.8305A1,1,0,0,0,13.541,27.27Z" fill="#07234f" data-original="#000000" style="" class=""/><path xmlns="http://www.w3.org/2000/svg" d="M57,28a3.662,3.662,0,0,0-2.3423.8047c1.1542-5.1749-.6717-9.8721-4.3169-10.8486a5.3242,5.3242,0,0,0-3.0676.1244,3.7661,3.7661,0,0,1,1.0217-1.4262,3.3284,3.3284,0,0,1,2.6875-.6055,1,1,0,1,0,.27-1.9814,5.2766,5.2766,0,0,0-4.2247,1.04,5.9525,5.9525,0,0,0-1.7307,2.5208,5.35,5.35,0,0,0-2.6833-1.7424,5.7334,5.7334,0,0,0-4.4715.75A9.7249,9.7249,0,0,0,34,13.3086V11a1,1,0,0,0,1-1V6a1,1,0,0,0-1-1H26a1,1,0,0,0-1,1v4a1,1,0,0,0,1,1v2.3076a9.7323,9.7323,0,0,0-4.6213,4.0536C18.4,9.6252,13.8762,1.9877,9.7109,3.106c-2.3066.6176-3.5869,3.7348-3.7031,9.0146A62.8476,62.8476,0,0,0,8.1642,28.1788,3.8064,3.8064,0,0,0,6.9912,28a1,1,0,0,0-1,1V60a1,1,0,0,0,1,1H57a1,1,0,0,0,1-1V29A1,1,0,0,0,57,28ZM42.0957,17.8169a4.12,4.12,0,0,1,2.5957,2.665,1,1,0,0,0,1.5508.4151,4.1257,4.1257,0,0,1,3.581-1.0093c2.6172.7012,3.8809,4.8325,2.7588,9.021a12.1866,12.1866,0,0,1-.6306,1.7523c-.7479-.0144-1.115-.3577-1.7287-1.0121a3.9877,3.9877,0,0,0-6.46,0c-.627.6685-.9893,1.0171-1.77,1.0171s-1.1426-.3486-1.77-1.0171A4.172,4.172,0,0,0,36.9951,28a3.6223,3.6223,0,0,0-2.1227.65,11.3916,11.3916,0,0,1,.3229-4.4C36.3174,20.063,39.4629,17.1123,42.0957,17.8169ZM27,7h6V9H27Zm.3164,7.9487A1,1,0,0,0,28,14V11h4v3a1,1,0,0,0,.6836.9487,7.7179,7.7179,0,0,1,3.8775,2.907,12.8042,12.8042,0,0,0-3.2974,5.8772,12.8785,12.8785,0,0,0-.1236,6.5144,1.6719,1.6719,0,0,1-1.143.4192c-.78,0-1.1436-.3486-1.77-1.0176a3.9845,3.9845,0,0,0-6.4571.001c-.6259.668-.9892,1.0166-1.7685,1.0166H22V22.3247A7.7654,7.7654,0,0,1,27.3164,14.9487ZM10.2285,5.0376C12.34,4.4763,16.7642,10.089,20.27,20.1537a9.7443,9.7443,0,0,0-.27,2.171v7.0826A3.95,3.95,0,0,0,17,28a4.18,4.18,0,0,0-3.2314,1.6489c-.627.6685-.9913,1.0176-1.7735,1.0176a1.7066,1.7066,0,0,1-1.2223-.4814c-.1314-.4562-.2618-.9132-.3871-1.378A62.2633,62.2633,0,0,1,8.0078,12.165C8.1143,7.32,9.2246,5.3066,10.2285,5.0376ZM7.9912,30.2949a5.12,5.12,0,0,1,.7725.7227,4.18,4.18,0,0,0,3.2314,1.6489,4.18,4.18,0,0,0,3.2324-1.6489C15.8545,30.3486,16.2188,30,17,30s1.1436.3486,1.77,1.0171a3.9854,3.9854,0,0,0,6.458,0c.627-.6685.9893-1.0171,1.77-1.0171s1.1426.3486,1.77,1.0171a3.9854,3.9854,0,0,0,6.458,0c.6269-.6685.9892-1.0171,1.77-1.0171s1.1426.3486,1.77,1.0171a3.9845,3.9845,0,0,0,6.4571,0,5.0679,5.0679,0,0,1,.77-.7128V59h-38ZM56,59H47.9912V30.303a5.0454,5.0454,0,0,1,.7725.7146,3.9918,3.9918,0,0,0,6.4638,0A5.1249,5.1249,0,0,1,56,30.2949Z" fill="#07234f" data-original="#000000" style="" class=""/></g></svg>
