<?xml version="1.0"?>
<svg xmlns="http://www.w3.org/2000/svg" xmlns:xlink="http://www.w3.org/1999/xlink" xmlns:svgjs="http://svgjs.com/svgjs" version="1.1" width="512" height="512" x="0" y="0" viewBox="0 0 512 512" style="enable-background:new 0 0 512 512" xml:space="preserve" class=""><g><g xmlns="http://www.w3.org/2000/svg"><path d="m278.472 109.844c10.32-4.838 17.485-15.327 17.485-27.458v-52.082c0-16.709-13.594-30.304-30.304-30.304h-118.774c-4.143 0-7.5 3.358-7.5 7.5s3.357 7.5 7.5 7.5h118.774c8.438 0 15.304 6.865 15.304 15.304v52.082c0 8.439-6.865 15.305-15.304 15.305h-169.291c-8.438 0-15.304-6.865-15.304-15.305v-52.082c.001-8.438 6.866-15.304 15.304-15.304h15.625c4.143 0 7.5-3.358 7.5-7.5s-3.357-7.5-7.5-7.5h-15.625c-16.71 0-30.304 13.595-30.304 30.304v52.082c0 12.131 7.165 22.62 17.485 27.458l-36.51 49.007c-5.269 7.073-8.171 15.826-8.171 24.646v75.324c0 4.142 3.357 7.5 7.5 7.5s7.5-3.358 7.5-7.5v-34.385h254.291v211.754h-39.649c-4.143 0-7.5 3.358-7.5 7.5s3.357 7.5 7.5 7.5h39.649v4.319c0 22.872-18.607 41.479-41.479 41.479h-171.333c-22.871 0-41.479-18.607-41.479-41.479v-4.319h179.649c4.143 0 7.5-3.358 7.5-7.5s-3.357-7.5-7.5-7.5h-179.649v-141.858c0-4.142-3.357-7.5-7.5-7.5s-7.5 3.358-7.5 7.5v161.178c0 31.143 25.336 56.48 56.479 56.48h171.334c31.143 0 56.479-25.336 56.479-56.48v-272.012c0-8.82-2.902-17.573-8.171-24.646zm-224.61 99.592v-25.939c0-5.613 1.847-11.183 5.2-15.685l41.064-55.122h161.762l41.064 55.122c3.354 4.502 5.2 10.071 5.2 15.685v25.939z" fill="#07234f" data-original="#000000" style="" class=""/><path d="m188.508 75.36v-38.03c0-4.142-3.357-7.5-7.5-7.5s-7.5 3.358-7.5 7.5v38.03c0 4.142 3.357 7.5 7.5 7.5s7.5-3.357 7.5-7.5z" fill="#07234f" data-original="#000000" style="" class=""/><path d="m95.486 37.33v38.03c0 4.142 3.357 7.5 7.5 7.5s7.5-3.358 7.5-7.5v-38.03c0-4.142-3.357-7.5-7.5-7.5s-7.5 3.358-7.5 7.5z" fill="#07234f" data-original="#000000" style="" class=""/><path d="m141.997 82.861c4.143 0 7.5-3.358 7.5-7.5v-38.031c0-4.142-3.357-7.5-7.5-7.5s-7.5 3.358-7.5 7.5v38.03c0 4.143 3.357 7.501 7.5 7.501z" fill="#07234f" data-original="#000000" style="" class=""/><path d="m227.367 75.36v-38.03c0-4.142-3.357-7.5-7.5-7.5s-7.5 3.358-7.5 7.5v38.03c0 4.142 3.357 7.5 7.5 7.5s7.5-3.357 7.5-7.5z" fill="#07234f" data-original="#000000" style="" class=""/><path d="m266.378 75.36v-38.03c0-4.142-3.357-7.5-7.5-7.5s-7.5 3.358-7.5 7.5v38.03c0 4.142 3.357 7.5 7.5 7.5s7.5-3.357 7.5-7.5z" fill="#07234f" data-original="#000000" style="" class=""/><path d="m369.048 97.692c-18.852 0-37.321 5.096-53.414 14.737-3.553 2.128-4.708 6.735-2.579 10.288 2.128 3.553 6.734 4.708 10.288 2.58 13.764-8.246 29.568-12.604 45.705-12.604 49.124 0 89.09 39.966 89.09 89.092v95.562h-107.48c-4.143 0-7.5 3.358-7.5 7.5s3.357 7.5 7.5 7.5h107.479v95.562c0 49.125-39.966 89.092-89.09 89.092-8.845 0-17.577-1.293-25.955-3.845-3.958-1.207-8.152 1.028-9.359 4.99s1.027 8.153 4.99 9.36c9.795 2.983 19.998 4.495 30.324 4.495 57.396 0 104.09-46.695 104.09-104.092v-206.125c.001-57.397-46.694-104.092-104.089-104.092z" fill="#07234f" data-original="#000000" style="" class=""/><path d="m196.008 273.234h-30c-4.143 0-7.5 3.358-7.5 7.5v27.079h-27.078c-4.143 0-7.5 3.358-7.5 7.5v30.001c0 4.142 3.357 7.5 7.5 7.5h27.078v27.079c0 4.142 3.357 7.5 7.5 7.5h30c4.143 0 7.5-3.358 7.5-7.5v-27.079h27.078c4.143 0 7.5-3.358 7.5-7.5v-30.001c0-4.142-3.357-7.5-7.5-7.5h-27.078v-27.079c0-4.142-3.358-7.5-7.5-7.5zm27.078 49.579v15h-27.078c-4.143 0-7.5 3.358-7.5 7.5v27.079h-15v-27.079c0-4.142-3.357-7.5-7.5-7.5h-27.078v-15h27.078c4.143 0 7.5-3.358 7.5-7.5v-27.079h15v27.079c0 4.142 3.357 7.5 7.5 7.5z" fill="#07234f" data-original="#000000" style="" class=""/></g></g></svg>
