<?xml version="1.0"?>
<svg xmlns="http://www.w3.org/2000/svg" xmlns:xlink="http://www.w3.org/1999/xlink" xmlns:svgjs="http://svgjs.com/svgjs" version="1.1" width="512" height="512" x="0" y="0" viewBox="0 0 64 64" style="enable-background:new 0 0 512 512" xml:space="preserve" class=""><g><g xmlns="http://www.w3.org/2000/svg"><g id="LINE_150_"><g><path d="m11.312 53c-.552 0-1-.447-1-1v-8.773c0-.553.448-1 1-1s1 .447 1 1v8.773c0 .553-.448 1-1 1z" fill="#f0ea34" data-original="#000000" style=""/></g></g><g id="LINE_151_"><g><path d="m52.688 53c-.552 0-1-.447-1-1v-8.773c0-.553.448-1 1-1s1 .447 1 1v8.773c0 .553-.448 1-1 1z" fill="#f0ea34" data-original="#000000" style=""/></g></g><g id="LINE_152_"><g><path d="m39.619 35.574c-.378 0-.74-.216-.909-.581l-.969-2.102c-.231-.502-.012-1.096.49-1.327.5-.23 1.095-.012 1.327.489l.969 2.102c.231.502.012 1.096-.49 1.327-.136.063-.278.092-.418.092z" fill="#f0ea34" data-original="#000000" style=""/></g></g><g id="LINE_153_"><g><path d="m32 38.959c-.288 0-.574-.124-.772-.363-.352-.427-.291-1.057.135-1.408l6.649-5.486c.426-.35 1.057-.29 1.408.135.352.427.291 1.057-.135 1.408l-6.649 5.486c-.186.153-.411.228-.636.228z" fill="#f0ea34" data-original="#000000" style=""/></g></g><g id="LINE_154_"><g><path d="m16.313 38.24c-.42 0-.811-.266-.95-.687-.173-.524.112-1.09.636-1.263l8.069-2.666c.527-.177 1.09.11 1.264.636.173.524-.112 1.09-.636 1.263l-8.069 2.666c-.105.036-.21.051-.314.051z" fill="#f0ea34" data-original="#000000" style=""/></g></g><g id="LINE_155_"><g><path d="m24.381 35.574c-.14 0-.283-.029-.418-.092-.502-.231-.721-.825-.49-1.327l.969-2.102c.231-.501.827-.72 1.327-.489.502.231.721.825.49 1.327l-.969 2.102c-.169.365-.531.581-.909.581z" fill="#f0ea34" data-original="#000000" style=""/></g></g><g id="LINE_156_"><g><path d="m32 38.959c-.224 0-.45-.075-.636-.229l-6.649-5.486c-.426-.352-.487-.981-.135-1.408.352-.425.983-.484 1.408-.135l6.649 5.486c.426.352.487.981.135 1.408-.198.24-.484.364-.772.364z" fill="#f0ea34" data-original="#000000" style=""/></g></g><g id="LINE_157_"><g><path d="m35.671 40.59c-.136 0-.273-.027-.405-.086l-3.672-1.631c-.505-.225-.732-.815-.508-1.32.224-.504.815-.733 1.32-.508l3.672 1.631c.505.225.732.815.508 1.32-.166.372-.531.594-.915.594z" fill="#f0ea34" data-original="#000000" style=""/></g></g><g id="LINE_158_"><g><path d="m28.329 40.59c-.383 0-.749-.222-.915-.594-.224-.505.003-1.096.508-1.32l3.672-1.631c.502-.226 1.096.004 1.32.508.224.505-.003 1.096-.508 1.32l-3.672 1.631c-.132.059-.27.086-.405.086z" fill="#f0ea34" data-original="#000000" style=""/></g></g><g id="LINE_159_"><g><path d="m28.329 40.59c-.296 0-.589-.131-.787-.382l-3.946-5.016c-.341-.434-.266-1.063.168-1.404.433-.34 1.062-.267 1.404.168l3.946 5.016c.341.434.266 1.063-.168 1.404-.183.144-.401.214-.617.214z" fill="#f0ea34" data-original="#000000" style=""/></g></g><g id="LINE_160_"><g><path d="m47.687 38.24c-.104 0-.209-.016-.314-.051l-8.069-2.666c-.524-.173-.809-.738-.636-1.263s.737-.813 1.264-.636l8.069 2.666c.524.173.809.738.636 1.263-.139.422-.53.687-.95.687z" fill="#f0ea34" data-original="#000000" style=""/></g></g><g id="LINE_161_"><g><path d="m35.671 40.59c-.217 0-.435-.07-.618-.214-.434-.342-.509-.971-.168-1.404l3.946-5.016c.343-.435.972-.508 1.404-.168.434.342.509.971.168 1.404l-3.946 5.016c-.197.251-.49.382-.786.382z" fill="#f0ea34" data-original="#000000" style=""/></g></g><g id="LWPOLYLINE_19_"><g><path d="m11.313 44.227c-.043 0-.087-.003-.131-.009-.548-.071-.934-.573-.862-1.121l.138-1.051c.005-.038.012-.076.021-.113.691-2.759 2.828-4.927 5.576-5.659.535-.139 1.082.176 1.224.709.142.534-.175 1.082-.709 1.225-2.028.54-3.608 2.13-4.137 4.158l-.13.991c-.065.503-.495.87-.99.87z" fill="#f0ea34" data-original="#000000" style=""/></g></g><g id="LWPOLYLINE_20_"><g><path d="m52.687 44.227c-.494 0-.924-.366-.99-.87l-.13-.991c-.528-2.028-2.109-3.618-4.137-4.158-.534-.143-.851-.69-.709-1.225.142-.533.686-.848 1.224-.709 2.749.732 4.885 2.9 5.576 5.659.009.037.016.075.021.113l.138 1.051c.072.548-.314 1.05-.862 1.121-.044.006-.088.009-.131.009z" fill="#f0ea34" data-original="#000000" style=""/></g></g><g id="LINE_162_"><g><path d="m29.001 51c-.308 0-.611-.141-.807-.408-.327-.444-.231-1.07.213-1.397l3-2.205c.445-.328 1.071-.232 1.398.214.327.444.231 1.07-.213 1.397l-3 2.205c-.178.131-.385.194-.591.194z" fill="#f0ea34" data-original="#000000" style=""/></g></g><g id="LINE_163_"><g><path d="m34.999 51c-.206 0-.413-.063-.591-.194l-3-2.205c-.445-.327-.541-.953-.213-1.397.326-.445.952-.542 1.398-.214l3 2.205c.445.327.541.953.213 1.397-.196.266-.499.408-.807.408z" fill="#f0ea34" data-original="#000000" style=""/></g></g><g id="LINE_164_"><g><path d="m29 51c-.552 0-1-.447-1-1v-8c0-.553.448-1 1-1s1 .447 1 1v8c0 .553-.448 1-1 1z" fill="#f0ea34" data-original="#000000" style=""/></g></g><g id="LINE_165_"><g><path d="m35 51c-.552 0-1-.447-1-1v-8c0-.553.448-1 1-1s1 .447 1 1v8c0 .553-.448 1-1 1z" fill="#f0ea34" data-original="#000000" style=""/></g></g><g id="LINE_166_"><g><path d="m43 59h-22c-.552 0-1-.447-1-1s.448-1 1-1h22c.552 0 1 .447 1 1s-.448 1-1 1z" fill="#f0ea34" data-original="#000000" style=""/></g></g><g id="LWPOLYLINE_21_"><g><path d="m43 59c-.552 0-1-.447-1-1v-15h-20v15c0 .553-.448 1-1 1s-1-.447-1-1v-16c0-.553.448-1 1-1h22c.552 0 1 .447 1 1v16c0 .553-.448 1-1 1z" fill="#f0ea34" data-original="#000000" style=""/></g></g><g id="LWPOLYLINE_22_"><g><path d="m31.96 31.973c-.944 0-1.892-.166-2.812-.51-4.247-1.583-6.283-5.952-6.772-9.513-.075-.547.308-1.051.854-1.126.548-.082 1.052.307 1.127.854.411 2.987 2.068 6.635 5.49 7.911 2.626.977 5.598.022 7.567-2.438 1.167-1.458 1.938-3.351 2.229-5.474.075-.548.578-.937 1.127-.854.547.074.93.579.854 1.126-.341 2.481-1.257 4.713-2.649 6.452-1.847 2.31-4.415 3.572-7.015 3.572z" fill="#f0ea34" data-original="#000000" style=""/></g></g><g id="LINE_167_"><g><path d="m32 8.083c-.552 0-1-.447-1-1v-1.083c0-.553.448-1 1-1s1 .447 1 1v1.083c0 .553-.448 1-1 1z" fill="#f0ea34" data-original="#000000" style=""/></g></g><g id="LWPOLYLINE_23_"><g><path d="m40.743 22.866c-.671 0-1.346-.175-1.927-.325-.154-.04-.3-.078-.435-.109-.693-.158-1.379-.349-2.064-.54-.77-.215-1.497-.418-2.244-.576-2.213-.473-4.284.069-6.478.643-1.102.288-2.24.586-3.432.764-.866.129-2.253.336-3.059-.954-.643-1.028-.557-2.333-.488-3.381.015-.223.029-.435.034-.629.014-.553.45-.956 1.024-.976.552.014.988.473.975 1.024-.005.22-.021.46-.037.711-.05.762-.112 1.709.188 2.189.087.14.308.147 1.03.042 1.124-.167 2.209-.451 3.259-.726 2.322-.605 4.724-1.23 7.401-.665.807.172 1.599.394 2.364.606.655.183 1.309.366 1.972.518.153.034.318.077.491.122.549.142 1.379.357 1.765.215.46-.17.346-1.792.303-2.403-.016-.23-.03-.438-.034-.609-.014-.552.423-1.011.975-1.024.539.011 1.01.423 1.024.976.004.146.017.322.03.519.092 1.304.262 3.73-1.606 4.42-.334.12-.682.168-1.031.168z" fill="#f0ea34" data-original="#000000" style=""/></g></g><g id="ARC_65_"><g><path d="m21.648 18.782c-.51 0-.946-.388-.995-.906-.225-2.38.234-4.762 1.329-6.888.252-.491.855-.686 1.347-.433s.685.856.432 1.347c-.919 1.786-1.305 3.787-1.116 5.786.052.55-.352 1.037-.901 1.089-.033.004-.064.005-.096.005z" fill="#f0ea34" data-original="#000000" style=""/></g></g><g id="ARC_66_"><g><path d="m37.397 9.091c-.12 0-.242-.021-.361-.067-3.248-1.256-6.825-1.256-10.073 0-.513.2-1.094-.057-1.293-.572s.057-1.094.572-1.293c3.713-1.438 7.804-1.438 11.517 0 .515.199.771.778.572 1.293-.154.396-.533.639-.934.639z" fill="#f0ea34" data-original="#000000" style=""/></g></g><g id="ARC_67_"><g><path d="m22.871 12.445c-.154 0-.31-.035-.457-.11-.491-.253-.685-.856-.432-1.348.904-1.756 2.417-3.116 4.259-3.829.516-.199 1.095.056 1.293.571.199.516-.057 1.095-.572 1.294-1.386.536-2.523 1.559-3.203 2.88-.176.344-.526.542-.888.542z" fill="#f0ea34" data-original="#000000" style=""/></g></g><g id="ARC_68_"><g><path d="m42.352 18.782c-.031 0-.063-.001-.095-.005-.55-.052-.953-.539-.901-1.089.189-2-.197-4-1.116-5.785-.253-.491-.06-1.095.432-1.347.492-.256 1.094-.061 1.347.431 1.094 2.126 1.554 4.508 1.329 6.889-.051.519-.486.906-.996.906z" fill="#f0ea34" data-original="#000000" style=""/></g></g><g id="ARC_69_"><g><path d="m41.129 12.445c-.363 0-.713-.197-.89-.542-.68-1.321-1.817-2.344-3.203-2.88-.515-.199-.771-.778-.572-1.294s.78-.771 1.293-.571c1.843.713 3.355 2.073 4.259 3.829.253.491.06 1.095-.432 1.348-.145.075-.301.11-.455.11z" fill="#f0ea34" data-original="#000000" style=""/></g></g><g id="ARC_70_"><g><path d="m42.351 18.782c-.255 0-.51-.097-.706-.291-5.318-5.293-13.972-5.293-19.29 0-.392.391-1.024.388-1.415-.004-.389-.392-.388-1.024.003-1.414 6.097-6.066 16.016-6.066 22.112 0 .391.39.393 1.022.003 1.414-.194.197-.451.295-.707.295z" fill="#f0ea34" data-original="#000000" style=""/></g></g></g></g></svg>
