<?xml version="1.0"?>
<svg xmlns="http://www.w3.org/2000/svg" xmlns:xlink="http://www.w3.org/1999/xlink" xmlns:svgjs="http://svgjs.com/svgjs" version="1.1" width="512" height="512" x="0" y="0" viewBox="0 0 512 512" style="enable-background:new 0 0 512 512" xml:space="preserve" class=""><g><path xmlns="http://www.w3.org/2000/svg" d="m452 60h-30v-60h-332v60h-30v91.797l-60 67.5v292.703h512v-292.703l-60-67.5zm-304.729 300.668-117.271 103.159v-205.771zm108.729-55.69 201.238 177.022h-402.476zm108.729 55.69 117.271-102.612v205.771zm-244.729-330.668h272v30h-272zm302 60v180.694l-79.989 69.99-86.011-75.662-86.011 75.661-79.989-69.989v-180.694zm-362 154.444-23.745-20.777 23.745-26.714zm415.745-20.777-23.745 20.777v-47.491z" fill="#ffffff" data-original="#000000" style="" class=""/><path xmlns="http://www.w3.org/2000/svg" d="m120 120h272v30h-272z" fill="#ffffff" data-original="#000000" style="" class=""/><path xmlns="http://www.w3.org/2000/svg" d="m120 180h272v30h-272z" fill="#ffffff" data-original="#000000" style="" class=""/><path xmlns="http://www.w3.org/2000/svg" d="m120 240h91v30h-91z" fill="#ffffff" data-original="#000000" style="" class=""/></g></svg>
