<?xml version="1.0"?>
<svg xmlns="http://www.w3.org/2000/svg" xmlns:xlink="http://www.w3.org/1999/xlink" xmlns:svgjs="http://svgjs.com/svgjs" version="1.1" width="512" height="512" x="0" y="0" viewBox="0 0 512 256" style="enable-background:new 0 0 512 512" xml:space="preserve" class=""><g><path xmlns="http://www.w3.org/2000/svg" d="m506.765625 138.707031-38.195313-20.699219-105.199218-114.765624c-1.894532-2.066407-4.566406-3.242188-7.371094-3.242188h-100c-5.523438 0-10 4.476562-10 10s4.476562 10 10 10h20v96h-179c-5.523438 0-10 4.476562-10 10s4.476562 10 10 10h179v107.085938c0 .308593.019531.613281.046875.914062h-113.902344c-7.964843-19.898438-27.433593-34-50.144531-34-14.804688 0-28.234375 5.992188-38 15.675781v-7.839843c0-15.351563-12.484375-27.835938-27.832031-27.835938h-24.5c-.570313 0-1.125.058594-1.667969.148438v-163.648438c0-3.585938 2.914062-6.5 6.5-6.5h137.167969c5.523437 0 10-4.476562 10-10s-4.476563-10-10-10h-137.167969c-14.613281 0-26.5 11.886719-26.5 26.5v211c0 14.613281 11.886719 26.5 26.5 26.5h31.5c0 29.777344 24.222656 54 54 54s54-24.222656 54-54h180c0 29.777344 24.222656 54 54 54s54-24.222656 54-54h48c5.523438 0 10-4.476562 10-10v-106.5c0-3.667969-2.007812-7.042969-5.234375-8.792969zm-486.765625 98.792969v-27.648438c.542969.089844 1.097656.148438 1.667969.148438h24.5c4.316406 0 7.832031 3.515625 7.832031 7.832031v26.167969h-27.5c-3.585938 0-6.5-2.914062-6.5-6.5zm92 60.5c-18.746094 0-34-15.253906-34-34s15.253906-34 34-34 34 15.253906 34 34-15.253906 34-34 34zm380-132h-13.082031c-3.632813 0-6.582031-2.953125-6.582031-6.582031v-16.621094l19.664062 10.65625zm-52.398438-50h-76.601562c-14.886719 0-27-12.113281-27-27v-69h15.601562zm-39.601562 182c-18.746094 0-34-15.253906-34-34s15.253906-34 34-34 34 15.253906 34 34-15.253906 34-34 34zm50.144531-54c-7.964843-19.898438-27.433593-34-50.144531-34s-42.179688 14.101562-50.144531 34h-53.902344c.027344-.300781.046875-.605469.046875-.914062v-223.085938h20v69c0 25.914062 21.085938 47 47 47h89.332031v23.417969c0 14.65625 11.925781 26.582031 26.582031 26.582031h13.085938v58zm0 0" fill="#07234f" data-original="#000000" style="" class=""/><path xmlns="http://www.w3.org/2000/svg" d="m208.328125 20c2.640625 0 5.210937-1.070312 7.070313-2.929688 1.871093-1.859374 2.929687-4.441406 2.929687-7.070312s-1.058594-5.210938-2.929687-7.070312c-1.859376-1.859376-4.429688-2.929688-7.070313-2.929688-2.628906 0-5.207031 1.070312-7.066406 2.929688-1.863281 1.859374-2.933594 4.441406-2.933594 7.070312s1.070313 5.210938 2.933594 7.070312c1.859375 1.859376 4.4375 2.929688 7.066406 2.929688zm0 0" fill="#07234f" data-original="#000000" style="" class=""/><path xmlns="http://www.w3.org/2000/svg" d="m51.929688 118.929688c-1.859376 1.859374-2.929688 4.441406-2.929688 7.070312s1.070312 5.210938 2.929688 7.070312c1.859374 1.859376 4.441406 2.929688 7.070312 2.929688s5.210938-1.070312 7.070312-2.929688c1.859376-1.859374 2.929688-4.441406 2.929688-7.070312s-1.070312-5.210938-2.929688-7.070312c-1.859374-1.859376-4.441406-2.929688-7.070312-2.929688s-5.210938 1.070312-7.070312 2.929688zm0 0" fill="#07234f" data-original="#000000" style="" class=""/><path xmlns="http://www.w3.org/2000/svg" d="m340.332031 148.667969h-14.332031c-5.523438 0-10 4.476562-10 10 0 5.523437 4.476562 10 10 10h14.332031c5.523438 0 10-4.476563 10-10 0-5.523438-4.476562-10-10-10zm0 0" fill="#07234f" data-original="#000000" style="" class=""/></g></svg>
